<svg xmlns="http://www.w3.org/2000/svg" width="200" height="200" viewBox="0 0 200 200">
  <!-- 外圆 -->
  <circle cx="100" cy="100" r="90" fill="#e0e0e0" stroke="#b0b0b0" stroke-width="2"/>
  
  <!-- 内圆 -->
  <circle cx="100" cy="100" r="80" fill="#d0d0d0" stroke="#a0a0a0" stroke-width="1"/>
  
  <!-- 刻度线 -->
  <g stroke="#909090" stroke-width="1">
    <!-- 生成36个刻度线 -->
    <line x1="100" y1="20" x2="100" y2="30" transform="rotate(0 100 100)"/>
    <line x1="100" y1="20" x2="100" y2="30" transform="rotate(10 100 100)"/>
    <line x1="100" y1="20" x2="100" y2="30" transform="rotate(20 100 100)"/>
    <line x1="100" y1="20" x2="100" y2="30" transform="rotate(30 100 100)"/>
    <line x1="100" y1="20" x2="100" y2="30" transform="rotate(40 100 100)"/>
    <line x1="100" y1="20" x2="100" y2="30" transform="rotate(50 100 100)"/>
    <line x1="100" y1="20" x2="100" y2="30" transform="rotate(60 100 100)"/>
    <line x1="100" y1="20" x2="100" y2="30" transform="rotate(70 100 100)"/>
    <line x1="100" y1="20" x2="100" y2="30" transform="rotate(80 100 100)"/>
    <line x1="100" y1="20" x2="100" y2="30" transform="rotate(90 100 100)"/>
    <line x1="100" y1="20" x2="100" y2="30" transform="rotate(100 100 100)"/>
    <line x1="100" y1="20" x2="100" y2="30" transform="rotate(110 100 100)"/>
    <line x1="100" y1="20" x2="100" y2="30" transform="rotate(120 100 100)"/>
    <line x1="100" y1="20" x2="100" y2="30" transform="rotate(130 100 100)"/>
    <line x1="100" y1="20" x2="100" y2="30" transform="rotate(140 100 100)"/>
    <line x1="100" y1="20" x2="100" y2="30" transform="rotate(150 100 100)"/>
    <line x1="100" y1="20" x2="100" y2="30" transform="rotate(160 100 100)"/>
    <line x1="100" y1="20" x2="100" y2="30" transform="rotate(170 100 100)"/>
    <line x1="100" y1="20" x2="100" y2="30" transform="rotate(180 100 100)"/>
    <line x1="100" y1="20" x2="100" y2="30" transform="rotate(190 100 100)"/>
    <line x1="100" y1="20" x2="100" y2="30" transform="rotate(200 100 100)"/>
    <line x1="100" y1="20" x2="100" y2="30" transform="rotate(210 100 100)"/>
    <line x1="100" y1="20" x2="100" y2="30" transform="rotate(220 100 100)"/>
    <line x1="100" y1="20" x2="100" y2="30" transform="rotate(230 100 100)"/>
    <line x1="100" y1="20" x2="100" y2="30" transform="rotate(240 100 100)"/>
    <line x1="100" y1="20" x2="100" y2="30" transform="rotate(250 100 100)"/>
    <line x1="100" y1="20" x2="100" y2="30" transform="rotate(260 100 100)"/>
    <line x1="100" y1="20" x2="100" y2="30" transform="rotate(270 100 100)"/>
    <line x1="100" y1="20" x2="100" y2="30" transform="rotate(280 100 100)"/>
    <line x1="100" y1="20" x2="100" y2="30" transform="rotate(290 100 100)"/>
    <line x1="100" y1="20" x2="100" y2="30" transform="rotate(300 100 100)"/>
    <line x1="100" y1="20" x2="100" y2="30" transform="rotate(310 100 100)"/>
    <line x1="100" y1="20" x2="100" y2="30" transform="rotate(320 100 100)"/>
    <line x1="100" y1="20" x2="100" y2="30" transform="rotate(330 100 100)"/>
    <line x1="100" y1="20" x2="100" y2="30" transform="rotate(340 100 100)"/>
    <line x1="100" y1="20" x2="100" y2="30" transform="rotate(350 100 100)"/>
  </g>
  
  <!-- 上升箭头 -->
  <path d="M70,120 L100,60 L130,120 L110,120 L110,140 L90,140 L90,120 Z" fill="#808080" stroke="#606060" stroke-width="2"/>
  
  <!-- 字母C -->
  <text x="60" y="110" font-family="Arial" font-size="20" font-weight="bold" fill="#606060">C</text>
  
  <!-- 货币符号 -->
  <circle cx="150" cy="110" r="8" fill="none" stroke="#606060" stroke-width="2"/>
  <line x1="150" y1="102" x2="150" y2="118" stroke="#606060" stroke-width="2"/>
</svg>